<?xml version="1.0" encoding="utf-8"?>
<!-- Generator: Adobe Illustrator 23.0.1, SVG Export Plug-In . SVG Version: 6.00 Build 0)  -->
<svg version="1.1" id="Layer_1" xmlns="http://www.w3.org/2000/svg" xmlns:xlink="http://www.w3.org/1999/xlink" x="0px" y="0px"
	 viewBox="0 0 1000 1000" style="enable-background:new 0 0 1000 1000;" xml:space="preserve">
<style type="text/css">
	.st0{fill:none;stroke:#262626;stroke-width:10;stroke-miterlimit:10;}
	.st1{fill:#FFFFFF;stroke:#262626;stroke-width:10;stroke-miterlimit:10;}
	.st2{opacity:0.57;fill:#F50057;}
	.st3{opacity:0.5;fill:#262626;}
</style>
<path class="st0" d="M624.75,666.58H314.79c-33.14,0-60-26.86-60-60v-283.5c0-33.14,26.86-60,60-60h309.96c33.14,0,60,26.86,60,60
	v283.5C684.75,639.72,657.89,666.58,624.75,666.58z"/>
<line class="st1" x1="255.91" y1="312.83" x2="685.87" y2="312.83"/>
<g>
	<path class="st2" d="M534.28,459.16H723.9V338.47c0-24.75-20.06-44.81-44.81-44.81H338.75c-24.75,0-44.81,20.06-44.81,44.81v313.87
		c0,24.75,20.06,44.81,44.81,44.81h150.71V503.97C489.47,479.22,509.53,459.16,534.28,459.16z"/>
</g>
<g>
	<path class="st1" d="M309.85,556.79h-79.84c-33.14,0-60-26.86-60-60v-79.84c0-33.14,26.86-60,60-60h79.84c33.14,0,60,26.86,60,60
		v79.84C369.85,529.93,342.99,556.79,309.85,556.79z"/>
	<line class="st1" x1="170.01" y1="356.95" x2="369.85" y2="556.79"/>
	<line class="st1" x1="369.85" y1="356.95" x2="170.01" y2="556.79"/>
</g>
<g>
	<path class="st1" d="M690.3,736.92H520.93c-33.14,0-60-26.86-60-60V495.61c0-33.14,26.86-60,60-60H690.3c33.14,0,60,26.86,60,60
		v181.31C750.3,710.05,723.44,736.92,690.3,736.92z"/>
	<path class="st3" d="M693.82,515.18H521.55c-5.52,0-10-4.48-10-10v-8.76c0-5.52,4.48-10,10-10h172.27c5.52,0,10,4.48,10,10v8.76
		C703.82,510.71,699.35,515.18,693.82,515.18z"/>
	<path class="st3" d="M693.82,571.17H521.55c-5.52,0-10-4.48-10-10v-8.76c0-5.52,4.48-10,10-10h172.27c5.52,0,10,4.48,10,10v8.76
		C703.82,566.69,699.35,571.17,693.82,571.17z"/>
	<path class="st3" d="M693.82,627.16H521.55c-5.52,0-10-4.48-10-10v-8.76c0-5.52,4.48-10,10-10h172.27c5.52,0,10,4.48,10,10v8.76
		C703.82,622.68,699.35,627.16,693.82,627.16z"/>
	<path class="st3" d="M612.68,683.14h-93.76c-5.52,0-10-4.48-10-10v-8.76c0-5.52,4.48-10,10-10h93.76c5.52,0,10,4.48,10,10v8.76
		C622.68,678.66,618.2,683.14,612.68,683.14z"/>
</g>
</svg>
